<svg xmlns="http://www.w3.org/2000/svg" style="display:none">
  
  <symbol id="logo" viewBox="0 0 106 31"><title>Data-delen</title><path d="M 86.904 4.434 L 89.561 4.434 L 89.648 5.654 A 3.629 3.629 0 0 1 92.278 4.255 A 4.803 4.803 0 0 1 92.686 4.238 A 4.529 4.529 0 0 1 93.651 4.335 Q 94.25 4.465 94.694 4.774 A 2.466 2.466 0 0 1 95.186 5.225 A 3.171 3.171 0 0 1 95.733 6.225 Q 95.891 6.681 95.964 7.24 A 7.868 7.868 0 0 1 96.025 8.174 L 96.025 15 L 93.203 15 L 93.203 8.242 A 3.268 3.268 0 0 0 93.172 7.776 Q 93.138 7.541 93.067 7.354 A 1.205 1.205 0 0 0 92.812 6.938 A 1.142 1.142 0 0 0 92.4 6.672 Q 92.051 6.535 91.53 6.533 A 4.025 4.025 0 0 0 91.514 6.533 A 2.195 2.195 0 0 0 90.704 6.676 Q 90.099 6.914 89.727 7.549 L 89.727 15 L 86.904 15 L 86.904 4.434 Z M 55.02 5.391 L 55.02 0 L 57.852 0 L 57.852 15 L 55.303 15 L 55.166 13.877 A 3.55 3.55 0 0 1 54.065 14.812 A 3.378 3.378 0 0 1 52.451 15.195 A 3.818 3.818 0 0 1 50.912 14.894 Q 50.075 14.529 49.458 13.726 A 4.992 4.992 0 0 1 48.65 12.1 Q 48.33 11.032 48.33 9.639 A 8.959 8.959 0 0 1 48.461 8.059 Q 48.621 7.166 48.977 6.45 A 4.717 4.717 0 0 1 49.438 5.703 Q 50.547 4.238 52.471 4.238 Q 54.014 4.238 55.02 5.391 Z M 21.787 15 L 18.936 15 A 2.445 2.445 0 0 1 18.785 14.631 Q 18.724 14.44 18.681 14.218 A 4.572 4.572 0 0 1 18.652 14.053 A 3.376 3.376 0 0 1 16.189 15.191 A 4.552 4.552 0 0 1 15.986 15.195 A 4.414 4.414 0 0 1 14.771 15.035 A 3.469 3.469 0 0 1 13.413 14.297 A 2.873 2.873 0 0 1 12.397 12.211 A 3.543 3.543 0 0 1 12.393 12.031 A 3.601 3.601 0 0 1 12.56 10.903 A 2.853 2.853 0 0 1 13.638 9.453 A 4.188 4.188 0 0 1 14.832 8.87 Q 15.397 8.691 16.084 8.611 A 10.301 10.301 0 0 1 17.236 8.545 L 18.535 8.545 L 18.535 7.939 A 2.319 2.319 0 0 0 18.487 7.451 Q 18.4 7.049 18.159 6.768 A 1.161 1.161 0 0 0 17.637 6.425 Q 17.353 6.328 16.973 6.328 A 2.402 2.402 0 0 0 16.528 6.367 Q 16.275 6.414 16.075 6.521 A 1.261 1.261 0 0 0 15.854 6.67 A 1.118 1.118 0 0 0 15.459 7.427 A 1.59 1.59 0 0 0 15.449 7.607 L 12.627 7.607 Q 12.627 6.689 13.193 5.908 A 3.468 3.468 0 0 1 14.18 5.002 A 4.549 4.549 0 0 1 14.795 4.683 Q 15.83 4.238 17.119 4.238 A 6.296 6.296 0 0 1 18.393 4.36 Q 19.171 4.52 19.774 4.894 A 3.612 3.612 0 0 1 20.22 5.22 Q 21.367 6.201 21.367 7.979 L 21.367 12.559 A 9.047 9.047 0 0 0 21.404 13.347 Q 21.481 14.162 21.716 14.688 A 2.355 2.355 0 0 0 21.787 14.834 L 21.787 15 Z M 39.268 15 L 36.416 15 A 2.445 2.445 0 0 1 36.266 14.631 Q 36.204 14.44 36.161 14.218 A 4.572 4.572 0 0 1 36.133 14.053 A 3.376 3.376 0 0 1 33.669 15.191 A 4.552 4.552 0 0 1 33.467 15.195 A 4.414 4.414 0 0 1 32.251 15.035 A 3.469 3.469 0 0 1 30.894 14.297 A 2.873 2.873 0 0 1 29.878 12.211 A 3.543 3.543 0 0 1 29.873 12.031 A 3.601 3.601 0 0 1 30.041 10.903 A 2.853 2.853 0 0 1 31.118 9.453 A 4.188 4.188 0 0 1 32.313 8.87 Q 32.877 8.691 33.564 8.611 A 10.301 10.301 0 0 1 34.717 8.545 L 36.016 8.545 L 36.016 7.939 A 2.319 2.319 0 0 0 35.967 7.451 Q 35.881 7.049 35.64 6.768 A 1.161 1.161 0 0 0 35.118 6.425 Q 34.833 6.328 34.453 6.328 A 2.402 2.402 0 0 0 34.009 6.367 Q 33.756 6.414 33.556 6.521 A 1.261 1.261 0 0 0 33.335 6.67 A 1.118 1.118 0 0 0 32.94 7.427 A 1.59 1.59 0 0 0 32.93 7.607 L 30.107 7.607 Q 30.107 6.689 30.674 5.908 A 3.468 3.468 0 0 1 31.66 5.002 A 4.549 4.549 0 0 1 32.275 4.683 Q 33.311 4.238 34.6 4.238 A 6.296 6.296 0 0 1 35.873 4.36 Q 36.652 4.52 37.255 4.894 A 3.612 3.612 0 0 1 37.7 5.22 Q 38.848 6.201 38.848 7.979 L 38.848 12.559 A 9.047 9.047 0 0 0 38.885 13.347 Q 38.962 14.162 39.196 14.688 A 2.355 2.355 0 0 0 39.268 14.834 L 39.268 15 Z M 59.658 9.971 L 59.658 9.697 A 7.067 7.067 0 0 1 59.832 8.101 A 5.799 5.799 0 0 1 60.273 6.851 Q 60.889 5.596 62.017 4.917 A 4.768 4.768 0 0 1 64.14 4.255 A 5.855 5.855 0 0 1 64.59 4.238 A 5.533 5.533 0 0 1 66.058 4.423 A 4.011 4.011 0 0 1 68.003 5.605 A 4.463 4.463 0 0 1 68.965 7.35 Q 69.169 8.023 69.226 8.83 A 9.237 9.237 0 0 1 69.248 9.482 L 69.248 10.635 L 62.52 10.635 A 2.998 2.998 0 0 0 62.755 11.485 A 2.448 2.448 0 0 0 63.345 12.295 A 2.382 2.382 0 0 0 64.675 12.894 A 3.217 3.217 0 0 0 65.088 12.92 A 3.603 3.603 0 0 0 66.232 12.747 A 2.918 2.918 0 0 0 67.637 11.738 L 69.023 13.291 A 4.158 4.158 0 0 1 67.571 14.559 A 5.024 5.024 0 0 1 67.305 14.692 A 5.46 5.46 0 0 1 65.428 15.175 A 6.562 6.562 0 0 1 64.902 15.195 A 6.176 6.176 0 0 1 63.157 14.96 A 4.814 4.814 0 0 1 61.118 13.77 A 4.761 4.761 0 0 1 59.738 11.031 A 6.746 6.746 0 0 1 59.658 9.971 Z M 75.771 9.971 L 75.771 9.697 A 7.067 7.067 0 0 1 75.945 8.101 A 5.799 5.799 0 0 1 76.387 6.851 Q 77.002 5.596 78.13 4.917 A 4.768 4.768 0 0 1 80.254 4.255 A 5.855 5.855 0 0 1 80.703 4.238 A 5.533 5.533 0 0 1 82.171 4.423 A 4.011 4.011 0 0 1 84.116 5.605 A 4.463 4.463 0 0 1 85.079 7.35 Q 85.282 8.023 85.339 8.83 A 9.237 9.237 0 0 1 85.361 9.482 L 85.361 10.635 L 78.633 10.635 A 2.998 2.998 0 0 0 78.868 11.485 A 2.448 2.448 0 0 0 79.458 12.295 A 2.382 2.382 0 0 0 80.788 12.894 A 3.217 3.217 0 0 0 81.201 12.92 A 3.603 3.603 0 0 0 82.345 12.747 A 2.918 2.918 0 0 0 83.75 11.738 L 85.137 13.291 A 4.158 4.158 0 0 1 83.684 14.559 A 5.024 5.024 0 0 1 83.418 14.692 A 5.46 5.46 0 0 1 81.542 15.175 A 6.562 6.562 0 0 1 81.016 15.195 A 6.176 6.176 0 0 1 79.27 14.96 A 4.814 4.814 0 0 1 77.231 13.77 A 4.761 4.761 0 0 1 75.852 11.031 A 6.746 6.746 0 0 1 75.771 9.971 Z M 4.404 15 L 0 15 L 0 0.781 L 4.375 0.781 A 7.126 7.126 0 0 1 6.411 1.064 A 6.215 6.215 0 0 1 7.729 1.626 A 5.89 5.89 0 0 1 10.039 4.028 A 7.075 7.075 0 0 1 10.817 6.604 A 8.771 8.771 0 0 1 10.869 7.568 L 10.869 8.223 A 8.223 8.223 0 0 1 10.639 10.205 A 6.774 6.774 0 0 1 10.054 11.748 A 5.84 5.84 0 0 1 7.754 14.141 A 6.538 6.538 0 0 1 4.978 14.976 A 7.898 7.898 0 0 1 4.404 15 Z M 24.092 1.836 L 26.914 1.836 L 26.914 4.434 L 28.721 4.434 L 28.721 6.504 L 26.914 6.504 L 26.914 11.777 A 2.427 2.427 0 0 0 26.93 12.065 Q 26.974 12.431 27.139 12.617 A 0.603 0.603 0 0 0 27.352 12.767 Q 27.548 12.852 27.858 12.868 A 2.837 2.837 0 0 0 27.998 12.871 A 5.517 5.517 0 0 0 28.388 12.858 Q 28.58 12.844 28.751 12.816 A 3.23 3.23 0 0 0 28.828 12.803 L 28.828 14.941 Q 27.998 15.195 27.119 15.195 A 4.243 4.243 0 0 1 25.923 15.041 Q 24.587 14.648 24.225 13.252 A 4.565 4.565 0 0 1 24.092 12.197 L 24.092 6.504 L 22.549 6.504 L 22.549 4.434 L 24.092 4.434 L 24.092 1.836 Z M 73.828 0 L 73.828 15 L 70.996 15 L 70.996 0 L 73.828 0 Z M 4.375 3.154 L 2.93 3.154 L 2.93 12.646 L 4.346 12.646 A 4.187 4.187 0 0 0 5.431 12.514 A 2.891 2.891 0 0 0 6.973 11.523 Q 7.881 10.4 7.9 8.311 L 7.9 7.559 A 8.371 8.371 0 0 0 7.817 6.335 Q 7.725 5.713 7.531 5.209 A 3.484 3.484 0 0 0 7.002 4.272 A 2.904 2.904 0 0 0 5.246 3.236 A 4.436 4.436 0 0 0 4.375 3.154 Z M 55.02 11.807 L 55.02 7.637 A 1.977 1.977 0 0 0 54.506 6.956 Q 54.125 6.639 53.577 6.56 A 2.676 2.676 0 0 0 53.193 6.533 A 1.698 1.698 0 0 0 51.571 7.523 Q 51.195 8.26 51.157 9.546 A 10.016 10.016 0 0 0 51.152 9.844 Q 51.152 10.783 51.36 11.444 A 2.698 2.698 0 0 0 51.67 12.119 A 1.719 1.719 0 0 0 52.27 12.693 Q 52.658 12.91 53.174 12.91 Q 54.482 12.91 55.02 11.807 Z M 46.504 7.773 L 46.504 10.049 L 41.006 10.049 L 41.006 7.773 L 46.504 7.773 Z M 62.549 8.711 L 66.475 8.711 L 66.475 8.486 A 2.962 2.962 0 0 0 66.409 7.904 Q 66.291 7.377 65.967 7.036 A 1.586 1.586 0 0 0 65.196 6.596 Q 64.943 6.53 64.643 6.524 A 3.074 3.074 0 0 0 64.58 6.523 Q 63.74 6.523 63.218 7.09 A 2.264 2.264 0 0 0 62.811 7.728 Q 62.684 8.019 62.608 8.374 A 4.664 4.664 0 0 0 62.549 8.711 Z M 78.662 8.711 L 82.588 8.711 L 82.588 8.486 A 2.962 2.962 0 0 0 82.522 7.904 Q 82.404 7.377 82.08 7.036 A 1.586 1.586 0 0 0 81.31 6.596 Q 81.056 6.53 80.756 6.524 A 3.074 3.074 0 0 0 80.693 6.523 Q 79.854 6.523 79.331 7.09 A 2.264 2.264 0 0 0 78.924 7.728 Q 78.797 8.019 78.721 8.374 A 4.664 4.664 0 0 0 78.662 8.711 Z M 18.535 12.012 L 18.535 10.195 L 17.48 10.195 A 4.583 4.583 0 0 0 16.701 10.256 Q 16.298 10.326 16.004 10.477 A 1.389 1.389 0 0 0 15.225 11.66 L 15.215 11.826 Q 15.215 12.354 15.586 12.695 A 1.238 1.238 0 0 0 16.123 12.981 Q 16.34 13.037 16.602 13.037 A 2.431 2.431 0 0 0 17.754 12.759 A 2.023 2.023 0 0 0 18.222 12.424 A 1.699 1.699 0 0 0 18.535 12.012 Z M 36.016 12.012 L 36.016 10.195 L 34.961 10.195 A 4.583 4.583 0 0 0 34.182 10.256 Q 33.778 10.326 33.485 10.477 A 1.389 1.389 0 0 0 32.705 11.66 L 32.695 11.826 Q 32.695 12.354 33.066 12.695 A 1.238 1.238 0 0 0 33.603 12.981 Q 33.82 13.037 34.082 13.037 A 2.431 2.431 0 0 0 35.234 12.759 A 2.023 2.023 0 0 0 35.702 12.424 A 1.699 1.699 0 0 0 36.016 12.012 Z"/></symbol>

  <symbol id="logo-icon" viewBox="0 0 50 41"><title>Data-delen</title><path d="M4,12h42c2.2,0,4,1.8,4,4v21c0,2.2-1.8,4-4,4H4c-2.2,0-4-1.8-4-4V16C0,13.8,1.8,12,4,12z"/><path opacity="0.6" d="M45.5,9h-41C3.7,9,3,8.3,3,7.5v0C3,6.7,3.7,6,4.5,6h41C46.3,6,47,6.7,47,7.5v0C47,8.3,46.3,9,45.5,9z"/><path opacity="0.4" d="M7.5,0h35C43.3,0,44,0.7,44,1.5v0C44,2.3,43.3,3,42.5,3h-35C6.7,3,6,2.3,6,1.5v0C6,0.7,6.7,0,7.5,0z"/></symbol>
  
  <symbol id="close" viewBox="0 0 30 30"><path d="M15 0c-8.3 0-15 6.7-15 15s6.7 15 15 15 15-6.7 15-15-6.7-15-15-15zm5.7 19.3c.4.4.4 1 0 1.4-.2.2-.4.3-.7.3s-.5-.1-.7-.3l-4.3-4.3-4.3 4.3c-.2.2-.4.3-.7.3s-.5-.1-.7-.3c-.4-.4-.4-1 0-1.4l4.3-4.3-4.3-4.3c-.4-.4-.4-1 0-1.4s1-.4 1.4 0l4.3 4.3 4.3-4.3c.4-.4 1-.4 1.4 0s.4 1 0 1.4l-4.3 4.3 4.3 4.3z"/></symbol>
  
  <symbol id="close-small" viewBox="0 0 11 11"><path d="M6.914 5.5l3.793-3.793c.391-.391.391-1.023 0-1.414s-1.023-.391-1.414 0l-3.793 3.793-3.793-3.793c-.391-.391-1.023-.391-1.414 0s-.391 1.023 0 1.414l3.793 3.793-3.793 3.793c-.391.391-.391 1.023 0 1.414.195.195.451.293.707.293s.512-.098.707-.293l3.793-3.793 3.793 3.793c.195.195.451.293.707.293s.512-.098.707-.293c.391-.391.391-1.023 0-1.414l-3.793-3.793z"/></symbol>

  <symbol id="arrow-left" viewBox="0 0 29 56"><path d="M28.7.3c.4.4.4 1 0 1.4l-26.3 26.3 26.3 26.3c.4.4.4 1 0 1.4-.4.4-1 .4-1.4 0l-27-27c-.4-.4-.4-1 0-1.4l27-27c.3-.3 1-.4 1.4 0z"/></symbol>
  
  <symbol id="arrow-right" viewBox="0 0 29 56"><path d="M.3 55.7c-.4-.4-.4-1 0-1.4l26.3-26.3-26.3-26.3c-.4-.4-.4-1 0-1.4.4-.4 1-.4 1.4 0l27 27c.4.4.4 1 0 1.4l-27 27c-.3.3-1 .4-1.4 0z"/></symbol>

  <symbol id="back" viewBox="0 0 20 20"><path d="M2.3 10.7l5 5c.4.4 1 .4 1.4 0s.4-1 0-1.4l-3.3-3.3h11.6c.6 0 1-.4 1-1s-.4-1-1-1h-11.6l3.3-3.3c.4-.4.4-1 0-1.4-.2-.2-.4-.3-.7-.3s-.5.1-.7.3l-5 5c-.2.2-.3.5-.3.7 0 .2.1.5.3.7z"/></symbol>
  
  <symbol id="menu" viewBox="0 0 18 18"><path d="M16 5h-14c-.6 0-1-.4-1-1 0-.5.4-1 1-1h14c.5 0 1 .4 1 1s-.4 1-1 1zm-14 5h14c.5 0 1-.4 1-1 0-.5-.4-1-1-1h-14c-.6 0-1 .4-1 1s.4 1 1 1zm14 3h-14c-.5 0-1 .4-1 1 0 .5.4 1 1 1h14c.5 0 1-.4 1-1s-.4-1-1-1z"/></symbol>
  
  <symbol id="share" viewBox="0 0 18 18"><path d="M16 8c-.6 0-1 .4-1 1v6h-12v-6c0-.6-.4-1-1-1s-1 .4-1 1v6c0 1.1.9 2 2 2h12c1.1 0 2-.9 2-2v-6c0-.6-.4-1-1-1zm-2.3-2.3c.4-.4.4-1 0-1.4l-4-4c-.4-.4-1-.4-1.4 0l-4 4c-.4.4-.4 1 0 1.4s1 .4 1.4 0l2.3-2.3v7.6c0 .6.4 1 1 1s1-.4 1-1v-7.6l2.3 2.3c.4.4 1 .4 1.4 0z"/></symbol>

  <symbol id="arrow-down" viewBox="0 0 24 24"><path d="M12 18c-.2 0-.5-.1-.7-.3l-11-10c-.4-.4-.4-1-.1-1.4.4-.4 1-.4 1.4-.1l10.4 9.4 10.3-9.4c.4-.4 1-.3 1.4.1.4.4.3 1-.1 1.4l-11 10c-.1.2-.4.3-.6.3z"/></symbol>
  
  <symbol id="arrow-up" viewBox="0 0 24 24"><path d="M11.9 5.9c.2 0 .5.1.7.3l11 10c.4.4.4 1 .1 1.4-.4.4-1 .4-1.4.1l-10.4-9.4-10.3 9.4c-.4.4-1 .3-1.4-.1-.4-.4-.3-1 .1-1.4l11-10c.1-.2.4-.3.6-.3z"/></symbol>
  
  <symbol id="arrow-top" viewBox="0 0 18 18"><path d="M15.7 7.3l-6-6c-.4-.4-1-.4-1.4 0l-6 6c-.4.4-.4 1 0 1.4.4.4 1 .4 1.4 0l4.3-4.3v11.6c0 .6.4 1 1 1s1-.4 1-1v-11.6l4.3 4.3c.2.2.4.3.7.3s.5-.1.7-.3c.4-.4.4-1 0-1.4z"/></symbol>
  
  <symbol id="play" viewBox="0 0 30 30"><path d="M7 30v-30l22 15z"/></symbol>
  
  <symbol id="chat" viewBox="0 0 18 18"><path d="M5,17c-0.2,0-0.3,0-0.4-0.1C4.2,16.7,4,16.4,4,16v-2H2c-1.1,0-2-0.9-2-2V3c0-1.1,0.9-2,2-2h14c1.1,0,2,0.9,2,2v9 c0,1.1-0.9,2-2,2H9.3l-3.7,2.8C5.4,16.9,5.2,17,5,17z M2,12h3.5C5.8,12,6,12.2,6,12.5V14l2.4-1.8C8.6,12.1,8.8,12,9,12h7V3H2V12z M13,7H5C4.4,7,4,6.6,4,6s0.4-1,1-1h8c0.6,0,1,0.4,1,1S13.6,7,13,7z M13,10H5c-0.6,0-1-0.4-1-1s0.4-1,1-1h8c0.6,0,1,0.4,1,1 S13.6,10,13,10z"/></symbol>

  <symbol id="mail" viewBox="0 0 18 18"><path d="M16 2h-14c-1.1 0-2 .9-2 2v10c0 1.1.9 2 2 2h14c1.1 0 2-.9 2-2v-10c0-1.1-.9-2-2-2zm0 2v.5l-7 4.3-7-4.4v-.4h14zm-14 10v-7.2l6.5 4c.1.1.3.2.5.2s.4-.1.5-.2l6.5-4v7.2h-14z"/></symbol>

  <symbol id="sound-on" viewBox="0 0 18 18"><path d="M8.5,0.1C8.1-0.1,7.7,0,7.4,0.2L3.7,3H2C0.9,3,0,3.9,0,5v6c0,1.1,0.9,2,2,2h1.7l3.7,2.8C7.6,15.9,7.8,16,8,16 c0.2,0,0.3,0,0.4-0.1C8.8,15.7,9,15.4,9,15V1C9,0.6,8.8,0.3,8.5,0.1z M7,13l-2.4-1.8C4.4,11.1,4.2,11,4,11l-2,0l0-6h2 c0.2,0,0.4-0.1,0.6-0.2L7,3V13z M11.7,9.9l0.7,1.9C13.9,11.2,15,9.7,15,8c0-1.7-1.1-3.2-2.7-3.8l-0.7,1.9C12.5,6.4,13,7.2,13,8C13,8.9,12.5,9.6,11.7,9.9z M12.2,1.1l-0.3,2C14.3,3.5,16,5.6,16,8s-1.8,4.5-4.2,4.9l0.3,2C15.6,14.3,18,11.4,18,8C18,4.6,15.6,1.7,12.2,1.1z"/></symbol>
  
  <symbol id="sound-off" viewBox="0 0 18 18"><path d="M15.9,8l1.8-1.8c0.4-0.4,0.4-1,0-1.4s-1-0.4-1.4,0l-1.8,1.8l-1.8-1.8c-0.4-0.4-1-0.4-1.4,0s-0.4,1,0,1.4L13.1,8l-1.8,1.8 c-0.4,0.4-0.4,1,0,1.4c0.2,0.2,0.5,0.3,0.7,0.3s0.5-0.1,0.7-0.3l1.8-1.8l1.8,1.8c0.2,0.2,0.5,0.3,0.7,0.3s0.5-0.1,0.7-0.3 c0.4-0.4,0.4-1,0-1.4L15.9,8z M8.5,0.1C8.1-0.1,7.7,0,7.4,0.2L3.7,3H2C0.9,3,0,3.9,0,5v6c0,1.1,0.9,2,2,2h1.7l3.7,2.8C7.6,15.9,7.8,16,8,16 c0.2,0,0.3,0,0.4-0.1C8.8,15.7,9,15.4,9,15V1C9,0.6,8.8,0.3,8.5,0.1z M7,13l-2.4-1.8C4.4,11.1,4.2,11,4,11l-2,0l0-6h2 c0.2,0,0.4-0.1,0.6-0.2L7,3V13z"/></symbol>
  
  <!-- social -->
  <symbol id="apple" viewBox="-1 1 24 24"><path d="M17.6 13.8c0-3 2.5-4.5 2.6-4.6-1.4-2.1-3.6-2.3-4.4-2.4-1.9-.2-3.6 1.1-4.6 1.1-.9 0-2.4-1.1-4-1-2 0-3.9 1.2-5 3-2.1 3.7-.5 9.1 1.5 12.1 1 1.5 2.2 3.1 3.8 3 1.5-.1 2.1-1 3.9-1s2.4 1 4 1 2.7-1.5 3.7-2.9c1.2-1.7 1.6-3.3 1.7-3.4-.1-.1-3.2-1.3-3.2-4.9zm-3.1-9c.8-1 1.4-2.4 1.2-3.8-1.2 0-2.7.8-3.5 1.8-.8.9-1.5 2.3-1.3 3.7 1.4.1 2.8-.7 3.6-1.7z"/></symbol>

  <symbol id="dribbble" viewBox="0 0 24 24"><path d="M12 0c-6.7 0-12 5.3-12 12s5.3 12 12 12 12-5.3 12-12-5.3-12-12-12zm7.9 5.7c1.3 1.7 2.1 3.9 2.3 6.1-.4-.1-2.4-.4-4.7-.4-.8 0-1.5 0-2.3.1 0-.1-.1-.3-.3-.5l-.7-1.5c3.7-1.4 5.3-3.4 5.7-3.8zm-7.9-3.8c2.5 0 4.9.9 6.7 2.5-.3.4-1.9 2.3-5.2 3.6-1.6-2.9-3.3-5.3-3.7-5.9.6-.1 1.4-.2 2.2-.2zm-4.4 1c.4.6 2.1 3 3.7 5.8-4.4 1.2-8.2 1.2-9.2 1.2h-.1c.8-3.1 2.9-5.6 5.6-7zm-5.7 9.1v-.3h.3c1.2 0 5.6-.1 10.1-1.5l.8 1.6c-.1 0-.3 0-.4.1-5.1 1.6-7.9 6-8.3 6.7-1.6-1.7-2.5-4.1-2.5-6.6zm10.1 10.1c-2.3 0-4.4-.8-6.1-2.1.3-.5 2.4-4.4 7.9-6.3 1.3 3.6 2 6.7 2.1 7.6-1.2.6-2.6.8-3.9.8zm5.7-1.8c-.1-.8-.7-3.6-2-7.1.7-.1 1.3-.1 2-.1 2.1 0 3.7.4 4.1.5-.3 2.8-1.8 5.2-4.1 6.7z"/></symbol>

  <symbol id="facebook" viewBox="0 0 24 24"><path d="M24 1.3v21.3c0 .7-.6 1.3-1.3 1.3h-6.1v-9.3h3.1l.5-3.6h-3.6v-2.2c0-1.1.3-1.8 1.8-1.8h1.9v-3.2c-.3 0-1.5-.1-2.8-.1-2.8 0-4.7 1.7-4.7 4.8v2.7h-3.1v3.6h3.1v9.2h-11.5c-.7 0-1.3-.6-1.3-1.3v-21.4c0-.7.6-1.3 1.3-1.3h21.3c.8 0 1.4.6 1.4 1.3z"/></symbol>

  <symbol id="facebook2" viewBox="0 0 512 512"><path d="M288 176v-64c0-17.664 14.336-32 32-32h32v-80h-64c-53.024 0-96 42.976-96 96v80h-64v80h64v256h96v-256h64l32-80h-96z"/></symbol>
   
  <symbol id="fb-like" viewBox="0 0 20 20"><path d="M0 8v12h5v-12h-5zm2.5 10.8c-.4 0-.8-.3-.8-.8 0-.4.3-.8.8-.8s.8.3.8.8c0 .4-.4.8-.8.8zm3.5-.8h9.5c1.1 0 1.7-1 1.7-1.7 0-.3-.4-1-.4-1 1.4-.3 1.7-1.2 1.7-1.7-.1-.5-.3-.9-.5-1 1-.4 1.5-1.1 1.4-1.9-.1-.8-1-1.5-1-1.5 1-.6.9-1.5.9-1.5-.3-1.3-1.5-1.7-1.7-1.7h-5.6s.3-.5.3-2.4-1.3-3.6-2.6-3.6c0 0-.7.1-1 .3v3.5l-2.7 4.4v9.8z"/></symbol>
  
  <symbol id="googlePlus" viewBox="0 1 24 24"><path d="M7.8 13.5h4.6c-.6 2-2.5 3.4-4.6 3.4-2.7 0-4.9-2.2-4.9-4.9s2.2-4.9 4.9-4.9c1.1 0 2.1.3 3 1l1.8-2.4c-1.4-1.1-3-1.6-4.8-1.6-4.3 0-7.9 3.5-7.9 7.9s3.5 7.9 7.9 7.9 7.9-3.5 7.9-7.9v-1.5h-7.9v3zM21.7 11v-2.2h-2v2.2h-2.2v2h2.2v2.2h2v-2.2h2.2v-2z"/></symbol>
  
  <symbol id="instagram" viewBox="0 0 20 20"><circle cx="10" cy="10" r="3.3"/><path d="M13,0H7C2.2,0,0,2.2,0,7v6c0,4.8,2.1,7,7,7h6c4.8,0,7-2.2,7-7V7C20,2.2,17.9,0,13,0z M10,15.1c-2.8,0-5.1-2.3-5.1-5.1 S7.2,4.9,10,4.9s5.1,2.3,5.1,5.1S12.8,15.1,10,15.1z M15.3,5.9c-0.7,0-1.2-0.5-1.2-1.2c0-0.7,0.5-1.2,1.2-1.2s1.2,0.5,1.2,1.2 C16.5,5.3,16,5.9,15.3,5.9z"/></symbol>

  <symbol id="behance" viewBox="0 0 511.958 511.958"><path d="M210.624 240.619c10.624-5.344 18.656-11.296 24.16-17.728 9.792-11.584 14.624-26.944 14.624-45.984 0-18.528-4.832-34.368-14.496-47.648-16.128-21.632-43.424-32.704-82.016-33.28h-152.896v312.096h142.56c16.064 0 30.944-1.376 44.704-4.192 13.76-2.848 25.664-8.064 35.744-15.68 8.96-6.624 16.448-14.848 22.4-24.544 9.408-14.656 14.112-31.264 14.112-49.76 0-17.92-4.128-33.184-12.32-45.728-8.288-12.544-20.448-21.728-36.576-27.552zm-147.552-90.432h68.864c15.136 0 27.616 1.632 37.408 4.864 11.328 4.704 16.992 14.272 16.992 28.864 0 13.088-4.32 22.24-12.864 27.392-8.608 5.152-19.776 7.744-33.472 7.744h-76.928v-68.864zm108.896 198.24c-7.616 3.68-18.336 5.504-32.064 5.504h-76.832v-83.232h77.888c13.568.096 24.128 1.888 31.68 5.248 13.44 6.08 20.128 17.216 20.128 33.504 0 19.2-6.912 32.128-20.8 38.976zM327.168 110.539h135.584v38.848h-135.584zM509.856 263.851c-2.816-18.08-9.024-33.984-18.688-47.712-10.592-15.552-24.032-26.944-40.384-34.144-16.288-7.232-34.624-10.848-55.04-10.816-34.272 0-62.112 10.72-83.648 32-21.472 21.344-32.224 52.032-32.224 92.032 0 42.656 11.872 73.472 35.744 92.384 23.776 18.944 51.232 28.384 82.4 28.384 37.728 0 67.072-11.232 88.032-33.632 13.408-14.144 20.992-28.064 22.656-41.728h-62.464c-3.616 6.752-7.808 12.032-12.608 15.872-8.704 7.04-20.032 10.56-33.92 10.56-13.216 0-24.416-2.912-33.76-8.704-15.424-9.28-23.488-25.536-24.512-48.672h170.464c.256-19.936-.384-35.264-2.048-45.824zm-166.88 5.984c2.24-15.008 7.68-26.912 16.32-35.712 8.64-8.768 20.864-13.184 36.512-13.216 14.432 0 26.496 4.128 36.32 12.416 9.696 8.352 15.168 20.48 16.288 36.512h-105.44z"/></symbol>
  
  <symbol id="linkedin" viewBox="0 0 24 24"><path d="M5.9 21.9h-4.7v-14.2h4.7v14.2zm-2.3-16.1c-1.6 0-2.6-1.1-2.6-2.5s1-2.5 2.7-2.5c1.6 0 2.6 1 2.6 2.5-.1 1.4-1.2 2.5-2.7 2.5zm19.2 16.1h-4.7v-7.6c0-2-.7-3.3-2.3-3.3-1.3 0-2.1.9-2.5 1.7-.1.3-.1.8-.1 1.2v7.9h-4.7v-14.1h4.7v2c.7-.9 1.7-2.3 4.3-2.3 3.1 0 5.5 2.1 5.5 6.4v8.2h-.2z"/></symbol>

  <symbol id="medium" viewBox="0 0 130.8 104"><path d="M15.5 21.2c.2-1.6-.5-3.2-1.7-4.3l-12.1-14.7v-2.2h38l29.3 64.4 25.8-64.4h36.2v2.2l-10.5 10c-.9.7-1.3 1.8-1.2 2.9v73.7c0 1.1.3 2.2 1.2 2.9l10.2 10v2.2h-51.3v-2.2l10.6-10.2c1-1 1-1.3 1-2.9v-59.6l-29.4 74.7h-4l-34.2-74.7v50.3c0 2.2.4 4.2 1.9 5.7l13.7 16.8v2.2h-39v-2.2l13.8-16.7c1.5-1.5 1.8-3.3 1.8-5.7l-.1-58.2z"/></symbol>
  
  <symbol id="pinterest" viewBox="0 0 24 24"><path d="M5.9 13.9c1.2-2-.4-2.5-.6-4-1-6.1 7.1-10.2 11.4-6 2.9 2.9 1 12-3.7 11-4.6-.9 2.2-8.1-1.4-9.5-3-1.1-4.6 3.6-3.2 5.9-.8 4-2.5 7.7-1.8 12.7 2.3-1.7 3.1-4.8 3.7-8.1 1.2.7 1.8 1.4 3.3 1.5 5.5.4 8.6-5.4 7.8-10.7-.7-4.7-5.5-7.1-10.6-6.6-4.1.4-8.1 3.7-8.3 8.3-.1 2.8.7 4.9 3.4 5.5z"/></symbol>
  
  <symbol id="stumbleupon" viewBox="0 0 24 24"><path d="M13.3 9.6l1.6.8 2.5-.8v-1.4c0-3-2.4-5.4-5.4-5.4s-5.4 2.4-5.4 5.4v7.5c0 .7-.6 1.3-1.3 1.3s-1.3-.6-1.3-1.3v-3.2h-4v3.2c0 3 2.4 5.4 5.4 5.4s5.4-2.4 5.4-5.4v-7.5c0-.7.6-1.3 1.3-1.3s1.3.6 1.3 1.3l-.1 1.4zm6.6 2.9v3.2c0 .7-.6 1.3-1.3 1.3s-1.3-.6-1.3-1.3v-3.2l-2.5.8-1.6-.8v3.2c0 3 2.4 5.4 5.4 5.4s5.4-2.4 5.4-5.4v-3.2h-4.1z"/></symbol>
  
  <symbol id="twitter" viewBox="0 1 24 23"><path d="M21.5 7.6v.6c0 6.6-5 14.1-14 14.1-2.8 0-5.4-.8-7.6-2.2l1.2.1c2.3 0 4.4-.8 6.1-2.1-2.2 0-4-1.5-4.6-3.4.3.1.6.1.9.1.5 0 .9-.1 1.3-.2-2.1-.6-3.8-2.6-3.8-5 .7.4 1.4.6 2.2.6-1.3-.9-2.2-2.4-2.2-4.1 0-.9.2-1.8.7-2.5 2.4 3 6.1 5 10.2 5.2-.1-.4-.1-.7-.1-1.1 0-2.7 2.2-5 4.9-5 1.4 0 2.7.6 3.6 1.6 1-.3 2.1-.7 3-1.3-.4 1.2-1.1 2.1-2.2 2.7 1-.1 1.9-.4 2.8-.8-.6 1.1-1.4 2-2.4 2.7z"/></symbol>
  
  <symbol id="tumblr" viewBox="0 0 23 23"><path d="M12.573 4.94v-4.94h-3.188c-.072.183-.11.4-.11.622-.034.107-.072.184-.072.293-.328 1.829-1.28 3.11-2.892 3.807-.476.218-.914.253-1.39.218v3.987h2.342c.039 5.603.039 8.493.039 8.64v.332c.294 2.449 1.573 3.914 3.843 4.463.914.257 1.901.366 2.892.366 1.279-.036 2.525-.256 3.771-.659v-4.685c-.731.22-1.395.402-1.977.583-1.135.333-2.087.113-2.857-.619-.073-.11-.183-.257-.221-.403-.106-.586-.178-1.206-.178-1.795v-6.222h5.083v-3.988h-5.085z"/></symbol>

  <symbol id="xing" viewBox="0 0 24 24"><path d="M3.647 4.74c-.208 0-.384.073-.472.216-.091.148-.077.338.02.531l2.34 4.051v.02l-3.678 6.49c-.096.191-.091.383 0 .531.088.142.244.236.452.236h3.461c.518 0 .767-.349.944-.669l3.737-6.608-2.38-4.15c-.172-.307-.433-.649-.964-.649h-3.46zm14.542-4.74c-.517 0-.741.326-.927.659l-7.702 13.658 4.918 9.023c.172.307.437.659.967.659h3.457c.208 0 .371-.079.459-.221.092-.148.09-.343-.007-.535l-4.88-8.915v-.023l7.664-13.551c.096-.191.098-.386.007-.534-.088-.142-.252-.221-.46-.221h-3.496z"/></symbol>

  <symbol id="whatsapp" viewBox="0 0 512 512"><path d="M256.064 0h-.128c-141.152 0-255.936 114.816-255.936 256 0 56 18.048 107.904 48.736 150.048l-31.904 95.104 98.4-31.456c40.48 26.816 88.768 42.304 140.832 42.304 141.152 0 255.936-114.848 255.936-256s-114.784-256-255.936-256zm148.96 361.504c-6.176 17.44-30.688 31.904-50.24 36.128-13.376 2.848-30.848 5.12-89.664-19.264-75.232-31.168-123.68-107.616-127.456-112.576-3.616-4.96-30.4-40.48-30.4-77.216s18.656-54.624 26.176-62.304c6.176-6.304 16.384-9.184 26.176-9.184 3.168 0 6.016.16 8.576.288 7.52.32 11.296.768 16.256 12.64 6.176 14.88 21.216 51.616 23.008 55.392 1.824 3.776 3.648 8.896 1.088 13.856-2.4 5.12-4.512 7.392-8.288 11.744-3.776 4.352-7.36 7.68-11.136 12.352-3.456 4.064-7.36 8.416-3.008 15.936 4.352 7.36 19.392 31.904 41.536 51.616 28.576 25.44 51.744 33.568 60.032 37.024 6.176 2.56 13.536 1.952 18.048-2.848 5.728-6.176 12.8-16.416 20-26.496 5.12-7.232 11.584-8.128 18.368-5.568 6.912 2.4 43.488 20.48 51.008 24.224 7.52 3.776 12.48 5.568 14.304 8.736 1.792 3.168 1.792 18.048-4.384 35.52z"/></symbol>
  
  <symbol id="youtube" viewBox="0 0 24 24"><path d="M23.6 6.3c-.3-1.2-1.4-2.2-2.6-2.3-3-.3-6-.3-9-.3s-6 0-9 .3c-1.2.1-2.3 1.1-2.6 2.3-.4 1.8-.4 3.8-.4 5.7 0 1.9 0 3.9.4 5.7.3 1.2 1.4 2.2 2.6 2.3 3 .3 6 .3 9 .3s6 0 9-.3c1.3-.1 2.3-1.1 2.6-2.4.4-1.7.4-3.7.4-5.6 0-1.9 0-3.9-.4-5.7zm-14.1 9v-6.6l6.5 3.3-6.5 3.3z"/></symbol>

</svg>